<svg xmlns="http://www.w3.org/2000/svg" viewBox="0 0 570.76 141.94"><defs><style>.cls-1{fill:#6ec6d7;}.cls-2{fill:#e8e767;}</style></defs><g id="レイヤー_2" data-name="レイヤー 2"><g id="レイヤー_1-2" data-name="レイヤー 1"><g id="レイヤー_2-2" data-name="レイヤー 2"><g id="レイヤー_1-2-2" data-name="レイヤー 1-2"><path class="cls-1" d="M405.72,31.18h-.12v-.1h-.12V31h-.12v-.1h-.12v-.1h-.12v-.1H405v-.09h0v-.1h-.12v-.1h-.12v-.1h-.12v-.1h-.13v-.1h-.12V30h-.12V29.9h-.12v-.1H404v-.1h-.12v-.1H404v-.1h-.12v-.1h-.12v-.1h-.12v-.09h-.12v-.1h-.12V29h-.13v-.1h-.12v-.1H403v-.1h-.12v-.1H403v-.09h-.12v-.1h-.13v-.1h-.12v-.1h-.12v-.1h-.12V28h-.12v-.1h-.12v-.09H402v-.1h-.12v-.1h-.12v-.1H402v-.1h-.12v-.1h-.12v-.1h-.13v-.09h-.12V27h-.12v-.1h-.12v-.1h-.12v-.1H401v-.1h-.13v-.1h.1v-.09h-.12v-.1h-.12v-.1h-.12v-.1h-.12v-.1h-.13V26h-.12v-.09h-.12v-.1H400v-.1h-.12v-.1H400v-.1h-.13v-.1h-.12v-.1h-.12v-.09h-.12v-.1h-.12V25h-.12v-.1h-.13v-.1H399v-.1h-.12v-.1h.1v-.09h-.12v-.1h-.12v-.1h-.13v-.1h-.12v-.1h-.12V24h-.12v-.1h-.12v-.09H398v-.1h-.13v-.1h.1v-.1h-.12v-.1h-.12v-.1h-.12v-.1h-.12V23.1h-.12V23h-.12v-.1h-.12v-.1H397v-.1h-.12v-.1H397v-.1h0v-.09h-.12v-.1h-.12v-.1h-.12v-.1h-.12V22h-.12v-.1h-.12v-.1h-.12v-.09H396v-.1h-.12v-.1H396v-.1h-.12v-.1h-.12v-.1h-.12v-.09h-.12V21h-.12v-.1h-.12v-.1h-.12v-.1H395v-.1h-.12v-.1H395v-.09h-.12v-.1h-.12v-.1h-.12v-.1h-.12V20h-.12v-.1h-.12v-.1h-.12v-.09H394v-.1h-.12v-.1H394v-.1h-.12v-.1h-.12v-.1h-.12v-.1h-.12v-.09h-.13V19h-.12v-.1h-.12v-.1H393v-.1h-.12v-.1H393v-.1h-.13v-.09h-.12v-.1h-.12v-.1h-.12v-.1h-.12V18h-.12v-.1h-.13v-.1H392v-.09h-.12v-.1h.1v-.1h-.12v-.1h-.12v-.1h-.13v-.1h-.12v-.1h-.12V17h-.12v-.1h-.12v-.1H391v-.1h-.13v-.1h-.12v-.1H391V16.4h-.12v-.1h-.12v-.1h-.12v-.1h-.13V16h-.12v-.1h-.12v-.1h-.12v-.09H390v-.1h-.12v-.1H390v-.1h-.12v-.1h-.12v-.1h-.12v-.1h-.12V15h-.12v-.1h-.13v-.1h-.12v-.1H389v-.1h-.12v-.1H389v-.1h-.12v-.09h-.13v-.1h-.12v-.1h-.12V14h-.12v-.1h-.12v-.1h-.12v-.1H388v-.09h-.12v-.1h.1v-.1h-.12v-.1h-.12v-.1h-.12v-.1h-.12V13h-.12V13h-.12v-.1h-.12v-.1H387v-.1h-.12v-.1H387v-.1h-.12v-.1h-.12v-.09h-.12v-.1h-.12v-.1h-.12V12h-.12v-.1h-.12v-.1H386v-.09h-.12v-.1H386v-.1h-.12v-.1h-.12v-.1h-.12v-.1h-.12v-.1h-.12V11h-.12v-.1h-.12v-.1H385v-.1h-.12v-.1h-.12v-.1h.2v-.1h-.12v-.09h-.12v-.1h-.12v-.1h-.12V10h-.12v-.1h-.12v-.1h-.12v-.1H384V9.6h-.12V9.5H384V9.4h-.12V9.3h-.12V9.2h-.12V9.1h-.12V9h-.12V8.91h-.12v-.1h-.12v-.1H383v-.1h-.12v-.1H383v-.1h-.12v-.1h-.12V8.22h-.12v-.1h-.12V8h-.12v-.1h-.13v-.1h-.12v-.1H382v-.1h-.12V7.53H382v-.1h-.12v-.1h-.13v-.1h-.12v-.1h-.12V7h-.12V6.94h-.12v-.1h-.12v-.1H381v-.1h-.12v-.1h.1v-.1h-.12v-.1h-.12V6.25h-.12v-.1h-.13v-.1h-.12V6h-.12v-.1h-.12v-.1H380v-.1h-.12V5.56H380v-.1h-.12v-.1h-.12v-.1h-.12v-.1h-.12v-.1h-.12V5h-.13V4.87h-.12v-.1H379v-.1h-.12v-.1h-.12v-.1H379v-.1h-.13v-.1h-.12V4.18h-.12v-.1h-.12V4h-.12v-.1h-.12v-.1h-.13v-.1H378v-.1h-.12V3.49h.1v-.1h-.12v-.1h-.12v-.1h-.13v-.1h-.12V3h-.12v-.1h-.12V2.8h-.12V2.7H377V2.6h-.13V2.5h.1V2.4h-.12V2.3h-.12V2.21h-.12v-.1h-.12V2h-.12v-.1h-.12v-.1h-.12v-.1H322L321,6h-.1V5.9h-.12V5.8h-.13V5.7h-.12V5.61h-.12v-.1h-.12v-.1h-.12v-.1h-.12v-.1h-.13v-.1H320V5h-.12V4.92h-.12v-.1h-.12v-.1h-.12v-.1h-.12v-.1h-.12v-.1h-.12v-.1H319V4.23h-.12v-.1H319V4h-.12v-.1h-.12v-.1h-.12v-.1H297.26V3.66h-.12v-.1H297v-.1h0v-.1h-.12v-.1h-.12V3.17h-.12v-.1h-.12V3h-.12v-.1h-.12v-.1h-.12v-.1H296v-.1h-.12V2.48H296v-.1h-.12v-.1h-.12v-.1h-.12v-.1h-.12V2h-.12v-.1h-.12V1.79h-.12v-.1H295v-.1h-.12v-.1H295v-.1h-.12v-.1h-.12V1.2h-.12V1.1h-.12V1h-.12V.9h-.12V.8h-.12V.7H294V.6h-.12V.51H294V.41h-.12V.31h-.12V.21h-.12V.11h-.12V0h-21l-9.36,7.8-.16.72h0v-.1h-.12v-.1h-.12v-.1h-.12v-.1h-.12V8h-.12V7.94h-.12v-.1h-.12v-.1H262v-.1h-.12v-.1H262v-.1h-.12v-.1h-.12V7.25h-.12v-.1h-.12v-.1h-.12V7h-.12v-.1h-.12v-.1H261v-.1h-.12V6.56h-.12v-.1h.2v-.1h-.12v-.1h-.12v-.1h-.12v-.1h-.12V6h-.12V5.87h-.12v-.1h-.13v-.1H260v-.1h-.12v-.1H260v-.1h-.12v-.1h-.12V5.18h-.13v-.1h-.12V5h-.12v-.1h-.12v-.1h-.12v-.1H259v-.1h-.13V4.49h.1v-.1h-.12v-.1h-.12v-.1h-.12v-.1h-.12V4h-.13V3.9h-.12V3.8h-.12V3.7H258V3.6h-.12V3.5H258V3.4h-.13V3.3h-.12V3.21h-.12v-.1h-.12V3h-.12v-.1h-.12v-.1h-.13v-.1H257v-.1h-.12V2.52h.1v-.1h-.12v-.1h-.12v-.1h-.13v-.1h-.12V2h-.12v-.1h-.12V1.83h-.12v-.1H256v-.1h-.13v-.1h.1v-.1h-.12v-.1H146.16l-2,8.56h0V9.8H144V9.7h0V9.6h-.12V9.5h-.12V9.4h-.12V9.3h-.12V9.2h-.12V9.11h-.12V9h-.12v-.1H143v-.1h-.12v-.1H143v-.1h-.12v-.1h-.12V8.42h-.12v-.1h-.12v-.1h-.12v-.1h-.12V8h-.13v-.1H142v-.1h-.12V7.73H142v-.1h-.12v-.1h-.12v-.1h-.13v-.1h-.12v-.1h-.12v-.1h-.12V7h-.12v-.1H141v-.1h-.13v-.1h.1v-.1h-.12v-.1h-.12v-.1h-.12V6.35h-.12v-.1h-.13v-.1h-.12v-.1h-.12V6H140v-.1h-.12V5.76H140v-.1h-.13v-.1h-.12v-.1h-.12v-.1h-.12v-.1h-.12v-.1h-.12V5.07h-.13V5H139v-.1h-.12v-.1h.1v-.1h-.12v-.1h-.12v-.1h-.13V4.38h-.12v-.1h-.12v-.1h-.12v-.1h-.12V4H138v-.1h-.13v-.1h-.12V3.69H138v-.1h-.12v-.1h-.12v-.1h-.12v-.1h-.13v-.1h-.12v-.1h-.12V3h-.12V2.9H137V2.8h-.12V2.7H137V2.6h-.12V2.5h-.12V2.4h-.12V2.31h-.12v-.1h-.12v-.1h-.12V2h-.12v-.1H136v-.1H122.52S103.89,7.05,103.84,7v-.1h-.12v-.1h-.13v-.1h-.12v-.1h-.12v-.1h-.12V6.44h-.12v-.1H103v-.1h-.13v-.1H103V6h-.12v-.1h-.12v-.1h-.12V5.75h-.12v-.1h-.12v-.1h-.12v-.1h-.12v-.1H102v-.1h-.12v-.1H102V5.06h-.12V5h-.12v-.1h-.12v-.1h-.12v-.1h-.12v-.1h-.12v-.1h-.12V4.37H101v-.1h-.12v-.1H101v-.1h-.12V4h-.12v-.1h-.12v-.1h-.12V3.68h-.12v-.1h-.12v-.1h-.12v-.1H100v-.1h-.12v-.1H100V3.09h-.12V3h-.12v-.1h-.12v-.1h-.12v-.1H99.4v-.1h-.12v-.1h-.12V2.4H99V2.3h-.12V2.2H99V2.1h-.12L99,2h-.12V1.9h-.12V1.8h-.12V1.71h-.12v-.1H98.4v-.1h-.12v-.1h-.12v-.1H98v-.1H25L20,23.79h.12v.1h.12V24h.12v.1h.12v.1h.13v.1h.12v.09h.12v.1H21v.1h0v.1h.12v.1h.13v.1h.12V25h.12v.1h.12v.1h.12v.1h.12v.1H22v.1h.12v.1h.12v.09H22v.1h.12v.1h.12V26h.13v.1h.12v.1H20.61l-4.92,22,4.8,6.36h0l.07.1h0l.08.1h0l.08.1h0l.07.1h0l.07.1h0l.07.09h0l.07.1h0l.08.1h0l.08.1h0l.07.1h0l.07.1h0l.07.1h0l.08.09h0l.08.1h0l.08.1h0l.07.1h0l.07.1h0l.07.1h0l.08.1h0l.08.09h0l.08.1h0l.07.09H12.48L7.32,78.75h.12v.1h.12V79h.12v.1H7.8v.1h.13v.1h.12v.09H8v.1h.12v.1h.12v.1h.12v.1h.13v.1h.12v.1h.12V80h.12v.1H9v.1h.12v.1H9v.1h.12v.1h.12v.1h.12v.09h.12v.1H9.6v.1h.13V81h0v.1h.1v.1h.1v.1H10v.09h.12v.1h.13v.1h.12v.1h.12v.1h.12v.1h.12V82h.12v.09H11v.1h.12v.1H11v.1h.12v.1h.12v.1h.12v.09h.13v.1h.12v.1h.12V83h.12v.1H12v.1h.12v.1H12v.08L5.4,87.75,0,111.27H.12v.1h.1v.1h.1v.1h.1v.1h.1v.1H.61v.09h.1v.1h.1v.1h.1v.1H1v.1h.13v.1H1.2v.1h.1v.09h.1v.1h.1v.1h.1v.1h.1v.1h.12v.1h.12v.1H2v.09h.12v.1h.12v.1h.13v.1h.12v.1h.12v.1h.12v.09h.12v.1H3v.1H3.1v.1H3v.1h.12v.1h.12v.1h.12v.09h.12v.1h.13v.1h.12v.1h.12v.1H4v.1h.12v.1H4v.09h.12v.1h.12v.1h.12v.1h.12v.1H4.6v.1h.12v.1h.12v.09H5v.1h.12v.1H5.2v.1H5v.1h.12v.1h.12v.1h.12v.09h.12v.1H5.6v.1h.12v.1h.12v.1H6v.1h.12v.1H6v.09h.12v.1h.12v.1h.12v.1h.12v.1H6.6v.1h.12v.09h.12v.1H7v.1h.12v.1H7v.1h.1v.1h.1v.1h.1v.09h.1v.1h.1v.1h.12v.1h.12v.1h.12v.1H8v.1H8v.09h.12v.1h.12v.1h.12v.1h.12v.1H8.6v.1h.12v.1h.12v.09H9v.1h.12v.1H9v.1h.12v.1h.12v.1h.12v.1h.12v.09H9.6v.1h.12v.1h.12v.1H10v.1h.13v.1H10v.1h.12v.09h.12v.1h.12v.1h.12v.1h.13v.1h.12v.1h.12v.1H11V122h.12v.1h.12v.1H11v.1h.12v.1h.12v.1h.12v.09h.12v.1h.12v.1h.13v.1h.12v.1H12v.1h.12v.1H12v.09h.12v.1h.13v.1h.12v.1h.12v.1h.12v.1h.12v.1h.12V124H13v.1h.12v.1H13v.1h.12v.1h.12v.1h.12v.1h.13v.09h.12v.1h.12v.1h.12v.1H14v.1h.12v.1H14v.1h.12v.09h.12v.1h.12v.1h.12v.1h.12v.1h.13v.1h.12v.1H15v.09h.12v.1H15v.1h.12v.1h.13v.1h.12v.1h.12v.09h.12v.1h.12v.1h.12v.1H16v.1h.12v.1H16v.1h.12v.09h.12v.1h.12v.1h.12v.1h.12v.1h.12v.1h.12v.1H17V128h.12v.1h.12v.1H17v.1h.12v.1h.12v.1h.12v.1h.12v.09h.12v.1h.12v.1h.12v.1H18v.1h.12v.1H18v.1h.12v.09h.12v.1h.12v.1h.12v.1h.12v.1h.12v.1h.12v.1H19v.09h.12v.1H19v.1h.12v.1h.12v.1h.12v.1h.12v.1h.12v.09h.12v.1h.12v.1H20v.1h.12v.1H20v.1h.12v.09h.12v.1h.12v.1h.12v.1h.12v.1h.12v.1h.12v.1H21v.09h.12v.1H21v.1h.12v.1h.12v.1h.12v.1h.12v.1h.12v.09h.13v.1h.12v.1H22v.1h.12v.1H22v.1h.12v.1h.13v.09h.12v.1h.12v.1h.12v.1h.12v.1h.12v.1H23v.1h.12v.09h.12v.1H23v.1h.12v.1h.12v.1h.13v.1h.12v.1h.12v.09h.12v.1h.12v.1H24v.1h.13v.1H24v.1h.12v.09h.12v.1h.12v.1h.12v.1h.13v.1h.12v.1h.12v.1H25v.09h.12v.1H25v.1h.13v.1h.12v.1h.12v.1h.12v.1h.12v.09h.12v.1h.13v.1H26v.1h.12v.1H26v.1h.12v.1h.12v.09h.13v.1h.12v.1h.12v.1h.12v.1h.12v.1H27v.1h.13v.09H27v.1h.12v.1h.12v.1h.12v.1h.12v.1h.13v.1h.12v.09h.12v.1H28v.1h.12v.1H28v.1h.13v.1h.12v.1h.12v.09h.12v.1h.12v.1h.12v.1h.12v.1H29v.1h.12v.09h.12v.1H29v.1h.12v.1h.12v.1h.12v.1h.12v.1H43.92L47,137.58h0v.1h.12v.1h.12v.09h.12v.1h.12v.1h.12v.1h.12v.1h.12v.1H48v.1h.12v.09H48v.1h.12v.1h.12v.1h.12v.1h.12v.1h.12v.1h.12v.09h.12v.1H49v.1h.12v.1H49v.1h.12v.1h.12v.1h.12v.09h.12v.1h.12v.1h.12v.1h.12v.1H50v.1h.12v.1H50v.09h.12v.1h.12v.1h.12v.1h.12v.1h.12v.1h.12v.09h.12v.1H51v.1h.12v.1h.12v.1H51v.1h.12v.1h27.6l1.79-7.73h0l.06.1h0l.06.1h0l.06.1h0v.1h0v.1h0l0,.1h0l.06.09h0l.06.1h0l.06.1h0l0,.1h0v.1h0v.1h0l.06.09h0l.06.1h0l.06.1h0v.1h0v.1h0v.1h0l.06.1h0l.06.09h0l.06.1h0v.1h0l.05.1h0v.1h0l.06.1h0l.06.1h0l.06.09h0v.1h0v.1h0v.1h0l.06.1h0l.06.1h0l.06.1h0l0,.09h0v.1h0v.1h0l.06.1h0l.06.1h0l.06.1h0v.1h.05v.09h0v.1h0l.06.1h0l.06.1h0l.06.1h0v.1h0l0,.1h0v.09h0l.06.1h0l.06.1h0l.06.1h0v.1h0v.1h0v.1h0l.06.09h0l.06.1h0l.06.1h0v.1h0v.1h0l0,.1h0l.06.09h0l.06.1h0l.06.1h0v.1H83v.1h0v.1h0l.06.1H94.5l.57-2.42h0v.09h.12v.1h.12v.1h.12v.1h.12v.1h.12v.1h.12v.1h.12v.09H96v.1h4v.1h.12v.1h.13v.1h.12v.1h.12v.1h.12v.09h.12v.1h.12v.1H101v.1h.12v.1H101v.1h.12v.1h.12v.09h.12v.1h.13v.1h.12v.1h.12v.1h.12v.1h12.6l27.48-6.12.24-1h0v.09h.12v.1h.12v.1h.12v.1h.12v.1h.13v.1h.12v.09H143v.1h.12v.1h.12v.1H143v.1h.13v.1h.12v.1h.12v.09h.12v.1h.12v.1h.12v.1h.13v.1H144v.1h.12v.1H144v.09h.12v.1h.12v.1h.13v.1h.12v.1h.12v.1h.12v.1h.12v.09H145v.1h.13v.1H145v.1h.12v.1h.12v.1h.12v.1h.12v.09h.13v.1h.12v.1h.12v.1H146v.1h.12v.1h.12v.1H146v.09h.12v.1h.12v.1h.12v.1h.12v.1h.12v.1h.13v.1h.12v.09H147v.1h.12v.1H147v.1h.12v.1h.13v.1h.12v.1h.12v.09h.12v.1h.12v.1h.12v.1H148v.1h.12v.1H148v.09h.12v.1h.12v.1h.12v.1h.12v.1h.12v.1h.12v.1h.12v.09H149v.1h.12v.1H149v.1h.12v.1h.12v.1H260.52l1.64-7.13h0v.1h.12v.1h.13v.1h.12v.1h.12v.09h.12v.1h.12v.1H263v.1h0v.1h.12v.1h.12v.1h.12v.09h.12v.1h.12v.1h.12v.1h.12v.1H264v.1h.12v.1h.12v.09H264v.1h.12v.1h.12v.1h.12v.1h.12v.1h.12v.09h.12v.1h.12v.1H265v.1h.12v.1H265v.1h.12v.1h.12v.09h.12v.1h.12v.1h.12v.1h.12v.1h.12v.1H266v.1h.12v.09H266v.1h.12v.1h.12v.1h.12v.1h.13v.1h.12v.1h.12v.09h.12v.1H267v.1h.12v.1H267v.1h.12v.1h.12v.1h.12v.09h.12v.1h.12v.1h.13v.1h.12v.1H268v.1h.12v.1H268v.09h.12v.1h.13v.1h.12v.1h.12v.1h.12v.1h33.72l.26-1.17h0v.1h.12v.1h.12v.1H303v.1h.12v.09h.12v.1H303v.1h.12v.1h.12v.1h.12v.1h.12v.09h.12v.1h.12v.1h.12v.1H304v.1h.12v.1H304v.1h.12v.09h.12v.1h.12v.1h.13v.1h.12v.1h.12v.1h.12v.1h41l.83-3.67h.07v.1h.12v.1H347v.1h.12v.1H347v.1h.12v.09h.12v.1h.12v.1h.12v.1h.12v.1h.12v.1h.12v.1H348v.09h.12v.1H348v.1h.12v.1h.12v.1h.12v.1h.12v.1h.12v.09h.12v.1h.12v.1H349v.1h.12v.1H349v.1h32.52L385.36,124l-.1-.08h0l-.1-.08h0l-.1-.08h0l-.1-.08h0l-.11-.08h0l-.11-.08h0l-.1-.09h0l-.1-.08h0l-.1-.08h0l-.1-.08h0l-.11-.08h0l-.11-.08h0L384,123h0l-.1-.09h0l-.1-.08h0l-.1-.08h0l-.11-.08h0l-.11-.08h0l-.1-.08h0l-.1-.08h0l-.1-.08h0l-.1-.08h0l-.11-.08h0l-.11-.08h0l-.1-.08h0l-.1-.08h0l-.1-.08h0l-.1-.08h0l-.11-.08h0l-.11-.08h0l-.1-.08h0l-.1-.08h0l-.1-.08h0l-.1-.08h0l-.11-.08h0l-.1-.08h0l-.1-.08h0l-.1-.08h0l-.1-.08h0l-.1-.08h0l-.11-.08h0l-.1-.08h0l-.1-.08h0l-.1-.08h0l-.1-.08h0l-.1-.08h0l-.11-.08h0l-.1-.08h0l-.1-.08h0l-.1-.08h0l-.1-.08h0l-.1-.08h0l-.11-.08h0l-.1-.08h0l-.1-.09h0l-.1-.08h0l-.1-.08h0l-.1-.08h0l-.11-.08h0l-.1-.08h0l-.1-.08h0L379,119h0l-.1-.08h0l-.1-.08h0l-.11-.08h0l-.1-.08h0l-.1-.08h0l-.1-.08h0l-.1-.08h0l-.1-.08h0l-.11-.08h0l-.1-.08h0l-.1-.08h0l-.1-.08h0l-.1-.08h0l-.1-.08h0l-.11-.08h0l-.1-.08h0l-.1-.08h0l-.1-.08h8.87L391,95.5h-.12v-.1h-.12v-.1h-.12v-.1h-.12v-.1h-.13V95h-.12v-.1h-.12v-.09H390v-.1h-.12v-.1H390v-.1h-.13v-.1h-.12v-.1h-.12v-.1h-.12v-.09h-.12V94h-.12v-.1h-.13v-.1H389v-.1h-.12v-.1h.1v-.09h-.12v-.1h-.12v-.1h-.13v-.1h-.12v-.1h4.15l5.4-23.28H398v-.1h-.12v-.1h-.12v-.1h-.12v-.1h-.13v-.1h-.12v-.1h-.12v-.09h-.12v-.1H397V69h-.12v-.1h-.13v-.1H397v-.1h-.12v-.09h-.12v-.1h-.12v-.1h-.12v-.1h-.13v-.1h-.12v-.1h-.12V68H396v-.09h-.12v-.1H396v-.1h-.13v-.1h-.12v-.1h-.12v-.1h-.12v-.1h-.12v-.09h-.12v-.1h-.13V67H395v-.1h0l3.58-5.44Z"/><path class="cls-2" d="M74.52,88.2l-5.4,23H57.72L52,100.92l-2.64,11.4H21.72l2.52-11-9.72,10H0l5.4-23.6,13.44-9H7.32l5.16-22.08H36.12L37,53.16H59.4l-.84,3.48H81.72l-5,22.08H65.4Zm-54-62H40.44L34,54.48H20.4l-4.8-6.36ZM136.2,1.8l-6.36,27.84-37.2,10.2H88.8l5.4-23.52-9.48,7.44H20L25.2,1.2h73L96.4,9.12,122.52,1.8ZM43.32,26.16h22.2l-5.64,24.6H37.68Zm31.8,28.32H61.68l6.48-28.32H88.32L83.4,47.4Zm41.52,17.16h3.48l-7.8,33.72-27.48,6.12H72.24l6.84-29.64ZM125.76,34h3.12l-7.8,33.24L83.52,77.52H80l7.68-33.24Z"/><path class="cls-2" d="M229.8,29.28l-1,4.56H249L231.12,111.6H119.76l18-77.76H159.6l1-4.56H139.68l6.48-28H256l-6.48,28Zm-13.68,28.2h-7.68l-1.92,8.28h5l-4.32,18.6H188.88L184.56,79l4.92-21.48h-3.36L181.2,79,176,84.36H156.6l4.32-18.6h3.84l1.92-8.28h-6.84l-7,29.76h56.4ZM199.8,29.28H189.48l-1.08,4.56h10.44Z"/><path class="cls-2" d="M277.68,89.28l-4.92,21.6H239l3.72-16,7.92-5.64ZM250.32,66H361.56l-4.68,20.64h-34.8l-5.76,25.44h-41l5.88-25.44H245.64Zm119-34.08-5.52,8.4h4.92l-5.4,23.28h-37l-3.6-6.36-1.44,6.36H292.2l1.56-6.84-6.6,6.84H250.32l4.92-21.24h20l2.28-2.28H271.2l3.12-13.44h10.92l-1.8,7.56,3-3,1.68-6.84H259.44L263.28,7.8,272.64,0h21l-.84,3.72h25.92l-8.4,36.12-5.64,5.76h11.64l-3.24-5.76L322,1.68h54.36ZM259,40.08l-2-4.2,2.16-9.24h12.72L268.8,40.08Zm90.24,49.2L356,94.56l-3.84,16.32H319.56l5-21.6Zm-11.8-63.36,3.72,7.44,5.4-7.92.12-1H337.8Z"/></g></g><polygon class="cls-1" points="570.66 100.38 570.68 100.31 570.58 100.31 570.6 100.23 570.5 100.23 570.51 100.16 570.42 100.16 570.43 100.09 570.34 100.09 570.35 100.01 570.25 100.01 570.27 99.94 570.17 99.94 570.19 99.87 570.09 99.87 570.11 99.8 570.01 99.8 570.03 99.72 569.93 99.72 569.95 99.65 569.85 99.65 569.87 99.58 569.77 99.58 569.79 99.5 569.69 99.5 569.71 99.43 569.61 99.43 569.62 99.36 569.53 99.36 569.54 99.28 569.45 99.28 569.46 99.21 569.36 99.21 569.38 99.14 569.28 99.14 569.3 99.07 569.2 99.07 569.22 98.99 569.12 98.99 569.14 98.92 569.04 98.92 569.06 98.85 568.96 98.85 568.98 98.77 568.88 98.77 568.89 98.7 568.8 98.7 568.81 98.63 568.72 98.63 568.73 98.56 568.64 98.56 568.65 98.48 568.55 98.48 568.57 98.41 568.47 98.41 568.49 98.34 568.39 98.34 568.41 98.26 568.31 98.26 568.33 98.19 568.23 98.19 568.25 98.12 568.15 98.12 568.17 98.04 568.07 98.04 568.09 97.97 567.99 97.97 568 97.9 567.91 97.9 567.92 97.83 567.83 97.83 567.84 97.75 567.75 97.75 567.76 97.68 567.66 97.68 567.68 97.61 567.58 97.61 567.6 97.53 567.5 97.53 567.52 97.46 567.42 97.46 567.44 97.39 567.34 97.39 567.36 97.31 567.26 97.31 567.28 97.24 567.18 97.24 567.2 97.17 567.1 97.17 567.11 97.1 567.02 97.1 567.03 97.02 566.93 97.02 566.95 96.95 566.85 96.95 566.87 96.88 566.77 96.88 566.79 96.8 566.69 96.8 566.71 96.73 566.61 96.73 566.63 96.66 566.53 96.66 566.55 96.58 566.45 96.58 566.47 96.51 566.37 96.51 566.38 96.44 566.29 96.44 566.3 96.37 566.21 96.37 566.22 96.29 566.13 96.29 566.14 96.22 566.04 96.22 566.06 96.15 565.96 96.15 565.98 96.08 565.88 96.08 565.9 96 565.8 96 565.82 95.93 565.72 95.93 565.74 95.86 565.64 95.86 565.66 95.78 565.56 95.78 565.58 95.71 565.48 95.71 565.5 95.64 565.4 95.64 565.41 95.56 565.32 95.56 565.33 95.49 565.24 95.49 565.25 95.42 565.15 95.42 565.17 95.34 565.07 95.34 565.09 95.27 564.99 95.27 565.01 95.2 564.91 95.2 564.93 95.13 564.83 95.13 564.85 95.05 564.75 95.05 564.77 94.98 564.67 94.98 564.68 94.91 564.59 94.91 564.6 94.83 564.51 94.83 564.52 94.76 564.42 94.76 564.44 94.69 564.34 94.69 564.36 94.62 564.26 94.62 564.28 94.54 564.18 94.54 564.2 94.47 564.1 94.47 564.12 94.4 564.02 94.4 564.04 94.32 563.94 94.32 563.96 94.25 563.86 94.25 563.88 94.18 563.78 94.18 563.79 94.11 563.7 94.11 563.71 94.03 563.62 94.03 563.63 93.96 563.53 93.96 563.55 93.89 563.45 93.89 563.47 93.81 563.37 93.81 563.39 93.74 563.29 93.74 563.31 93.67 563.21 93.67 563.23 93.59 563.13 93.59 563.15 93.52 563.05 93.52 563.07 93.45 562.97 93.45 562.99 93.38 562.89 93.38 562.9 93.3 562.81 93.3 562.82 93.23 562.73 93.23 562.74 93.16 562.64 93.16 562.66 93.08 562.56 93.08 562.58 93.01 562.48 93.01 562.5 92.94 562.4 92.94 562.42 92.86 562.32 92.86 562.34 92.79 562.24 92.79 562.26 92.72 562.16 92.72 562.17 92.65 562.08 92.65 562.09 92.57 562 92.57 562.01 92.5 561.91 92.5 561.93 92.43 561.83 92.43 561.85 92.36 561.75 92.36 561.77 92.28 561.67 92.28 561.69 92.21 561.59 92.21 561.61 92.14 561.51 92.14 561.53 92.06 561.43 92.06 561.45 91.99 561.35 91.99 561.37 91.92 561.27 91.92 561.28 91.84 561.19 91.84 561.2 91.77 561.11 91.77 561.12 91.7 561.02 91.7 561.04 91.63 560.94 91.63 560.96 91.55 560.86 91.55 560.88 91.48 560.78 91.48 560.8 91.41 560.7 91.41 560.72 91.33 560.62 91.33 560.64 91.26 560.54 91.26 560.56 91.19 560.46 91.19 560.48 91.11 560.38 91.11 560.39 91.04 560.3 91.04 560.31 90.97 560.22 90.97 560.23 90.9 560.13 90.9 560.15 90.82 560.05 90.82 560.07 90.75 559.97 90.75 559.99 90.68 559.89 90.68 559.91 90.6 559.81 90.6 559.83 90.53 559.73 90.53 559.75 90.46 559.65 90.46 559.66 90.39 559.57 90.39 559.58 90.31 559.49 90.31 559.5 90.24 559.4 90.24 559.42 90.17 559.32 90.17 559.34 90.09 559.24 90.09 559.26 90.02 559.16 90.02 559.18 89.95 559.08 89.95 559.1 89.88 559 89.88 559.02 89.8 558.92 89.8 558.94 89.73 558.84 89.73 558.86 89.66 558.76 89.66 558.77 89.58 558.68 89.58 558.69 89.51 558.6 89.51 558.61 89.44 558.51 89.44 558.53 89.36 558.43 89.36 558.45 89.29 558.35 89.29 558.37 89.22 558.27 89.22 558.29 89.14 558.19 89.14 558.21 89.07 558.11 89.07 558.13 89 558.03 89 558.05 88.93 557.95 88.93 557.96 88.85 557.87 88.85 557.88 88.78 557.79 88.78 557.8 88.71 557.71 88.71 557.72 88.64 557.62 88.64 557.64 88.56 557.54 88.56 557.56 88.49 557.46 88.49 557.48 88.42 557.38 88.42 557.4 88.34 557.3 88.34 557.32 88.27 557.22 88.27 557.24 88.2 557.14 88.2 557.15 88.12 557.06 88.12 557.07 88.05 556.98 88.05 556.99 87.98 556.89 87.98 556.91 87.91 556.81 87.91 556.83 87.83 556.73 87.83 556.75 87.76 556.65 87.76 556.67 87.69 556.57 87.69 556.59 87.61 556.49 87.61 556.51 87.54 556.41 87.54 556.43 87.47 556.33 87.47 556.35 87.39 556.25 87.39 556.26 87.32 556.17 87.32 556.18 87.25 556.09 87.25 556.1 87.18 556 87.18 556.02 87.1 555.92 87.1 555.94 87.03 555.84 87.03 555.86 86.96 555.76 86.96 555.78 86.88 555.68 86.88 555.7 86.81 555.6 86.81 555.62 86.74 555.52 86.74 555.54 86.67 555.44 86.67 555.45 86.59 555.36 86.59 555.37 86.52 555.28 86.52 555.29 86.45 555.2 86.45 555.21 86.37 555.11 86.37 555.13 86.3 555.03 86.3 555.05 86.23 554.95 86.23 554.97 86.15 554.87 86.15 554.89 86.08 554.79 86.08 554.81 86.01 554.71 86.01 554.73 85.94 554.63 85.94 554.64 85.86 554.55 85.86 554.56 85.79 554.47 85.79 554.48 85.72 554.38 85.72 554.4 85.64 554.3 85.64 554.32 85.57 554.22 85.57 554.24 85.5 554.14 85.5 554.16 85.42 554.06 85.42 554.08 85.35 553.98 85.35 554 85.28 553.9 85.28 553.92 85.21 553.82 85.21 553.84 85.13 553.74 85.13 553.75 85.06 553.66 85.06 553.67 84.99 553.58 84.99 553.59 84.91 553.49 84.91 553.51 84.84 553.41 84.84 553.43 84.77 553.33 84.77 553.35 84.7 553.25 84.7 553.27 84.62 553.17 84.62 553.19 84.55 553.09 84.55 553.11 84.48 553.01 84.48 553.02 84.4 552.93 84.4 552.94 84.33 552.85 84.33 552.86 84.26 552.77 84.26 552.78 84.19 552.68 84.19 552.7 84.11 552.6 84.11 552.62 84.04 552.52 84.04 552.54 83.97 552.44 83.97 552.46 83.89 552.36 83.89 552.38 83.82 552.28 83.82 552.3 83.75 552.2 83.75 552.22 83.67 552.12 83.67 552.13 83.6 552.04 83.6 552.05 83.53 551.96 83.53 551.97 83.45 551.88 83.45 551.89 83.38 551.79 83.38 551.81 83.31 551.71 83.31 551.73 83.24 551.63 83.24 551.65 83.16 551.55 83.16 551.57 83.09 551.47 83.09 551.49 83.02 551.39 83.02 551.41 82.94 551.31 82.94 551.33 82.87 551.23 82.87 551.24 82.8 551.15 82.8 551.16 82.73 551.07 82.73 551.08 82.65 550.98 82.65 551 82.58 550.9 82.58 550.92 82.51 550.82 82.51 550.84 82.43 550.74 82.43 550.76 82.36 550.66 82.36 550.68 82.29 550.58 82.29 550.6 82.22 550.5 82.22 550.51 82.14 550.42 82.14 550.43 82.07 550.34 82.07 550.35 82 550.26 82 550.27 81.92 550.17 81.92 550.19 81.85 550.09 81.85 550.11 81.78 550.01 81.78 550.03 81.7 549.93 81.7 549.95 81.63 549.85 81.63 549.87 81.56 549.77 81.56 549.79 81.49 549.69 81.49 549.71 81.41 549.61 81.41 549.63 81.34 549.53 81.34 549.54 81.27 549.45 81.27 549.46 81.19 549.37 81.19 549.38 81.12 549.28 81.12 549.3 81.05 549.2 81.05 549.22 80.97 549.12 80.97 549.14 80.9 549.04 80.9 549.06 80.83 548.96 80.83 548.98 80.76 548.88 80.76 548.9 80.68 548.8 80.68 548.82 80.61 548.72 80.61 548.73 80.54 548.64 80.54 548.65 80.47 548.55 80.47 548.57 80.39 548.47 80.39 548.49 80.32 548.39 80.32 548.41 80.25 548.31 80.25 548.33 80.17 548.23 80.17 548.25 80.1 548.15 80.1 548.17 80.03 548.07 80.03 548.09 79.95 547.99 79.95 548 79.88 547.91 79.88 547.92 79.81 547.83 79.81 547.84 79.73 547.75 79.73 547.76 79.66 547.66 79.66 547.68 79.59 547.58 79.59 547.6 79.52 547.5 79.52 547.52 79.44 547.42 79.44 547.44 79.37 547.34 79.37 547.36 79.3 547.26 79.3 547.28 79.22 547.18 79.22 547.2 79.15 547.1 79.15 547.12 79.08 547.02 79.08 547.03 79.01 546.94 79.01 546.95 78.93 546.86 78.93 546.87 78.86 546.77 78.86 546.79 78.79 546.69 78.79 546.71 78.71 546.61 78.71 546.63 78.64 546.53 78.64 546.55 78.57 546.45 78.57 546.47 78.5 546.37 78.5 546.39 78.42 546.29 78.42 546.3 78.35 546.21 78.35 546.22 78.28 546.13 78.28 546.14 78.2 546.04 78.2 546.06 78.13 545.96 78.13 545.98 78.06 545.88 78.06 545.9 77.98 545.8 77.98 545.82 77.91 545.72 77.91 545.74 77.84 545.64 77.84 545.66 77.77 545.56 77.77 545.58 77.69 545.48 77.69 545.5 77.62 545.4 77.62 545.41 77.55 545.32 77.55 545.33 77.47 545.24 77.47 545.25 77.4 545.15 77.4 545.17 77.33 545.07 77.33 545.09 77.25 544.99 77.25 545.01 77.18 544.91 77.18 544.93 77.11 544.83 77.11 544.85 77.04 544.75 77.04 544.77 76.96 544.67 76.96 544.69 76.89 544.59 76.89 544.61 76.82 544.51 76.82 544.52 76.75 544.43 76.75 544.44 76.67 544.35 76.67 544.36 76.6 544.26 76.6 544.28 76.53 544.18 76.53 544.2 76.45 544.1 76.45 544.12 76.38 544.02 76.38 544.04 76.31 543.94 76.31 543.96 76.23 543.86 76.23 543.88 76.16 543.78 76.16 543.79 76.09 543.7 76.09 543.71 76.02 543.62 76.02 543.63 75.94 543.53 75.94 543.55 75.87 543.45 75.87 543.47 75.8 543.37 75.8 543.39 75.72 543.29 75.72 543.31 75.65 543.21 75.65 543.23 75.58 543.13 75.58 543.15 75.5 543.05 75.5 543.07 75.43 542.97 75.43 542.99 75.36 542.89 75.36 542.9 75.29 542.81 75.29 542.82 75.21 542.73 75.21 542.74 75.14 542.64 75.14 542.66 75.07 542.56 75.07 542.58 74.99 542.48 74.99 542.5 74.92 542.4 74.92 542.42 74.85 542.32 74.85 542.34 74.78 542.24 74.78 542.26 74.7 542.16 74.7 542.18 74.63 542.08 74.63 542.1 74.56 542 74.56 542.01 74.48 541.92 74.48 541.93 74.41 541.84 74.41 541.85 74.34 541.75 74.34 541.77 74.26 541.67 74.26 541.69 74.19 541.59 74.19 541.61 74.12 541.51 74.12 541.53 74.05 541.43 74.05 541.45 73.97 541.35 73.97 541.37 73.9 541.27 73.9 541.28 73.83 541.19 73.83 541.2 73.75 541.11 73.75 541.12 73.68 541.02 73.68 541.04 73.61 540.94 73.61 540.96 73.53 540.86 73.53 540.88 73.46 540.78 73.46 540.8 73.39 540.7 73.39 540.72 73.32 540.62 73.32 540.64 73.24 540.54 73.24 540.56 73.17 540.46 73.17 540.48 73.1 540.38 73.1 540.39 73.02 540.3 73.02 540.31 72.95 540.22 72.95 540.23 72.88 540.13 72.88 540.15 72.81 540.05 72.81 540.07 72.73 539.97 72.73 539.99 72.66 539.89 72.66 539.91 72.59 539.81 72.59 539.83 72.51 539.73 72.51 539.75 72.44 539.65 72.44 539.67 72.37 539.57 72.37 539.59 72.3 539.49 72.3 539.5 72.22 539.41 72.22 539.42 72.15 539.33 72.15 539.34 72.08 539.24 72.08 539.26 72 539.16 72 539.18 71.93 539.08 71.93 539.1 71.86 539 71.86 539.02 71.78 538.92 71.78 538.94 71.71 538.84 71.71 538.86 71.64 538.76 71.64 538.77 71.56 538.68 71.56 538.69 71.49 538.6 71.49 538.61 71.42 538.51 71.42 538.53 71.35 538.43 71.35 538.45 71.27 538.35 71.27 538.37 71.2 538.27 71.2 538.29 71.13 538.19 71.13 538.21 71.06 538.11 71.06 538.13 70.98 538.03 70.98 538.05 70.91 537.95 70.91 537.97 70.84 537.87 70.84 537.88 70.76 537.79 70.76 537.8 70.69 537.71 70.69 537.72 70.62 537.63 70.62 537.64 70.54 537.54 70.54 537.56 70.47 537.46 70.47 537.48 70.4 537.38 70.4 537.4 70.33 537.3 70.33 537.32 70.25 537.22 70.25 537.24 70.18 537.14 70.18 537.16 70.11 537.06 70.11 537.08 70.03 536.98 70.03 536.99 69.96 536.9 69.96 536.91 69.89 536.82 69.89 536.83 69.81 536.73 69.81 536.75 69.74 520.2 69.74 519.61 72.3 519.6 72.3 519.62 72.22 519.52 72.22 519.54 72.15 519.44 72.15 519.46 72.08 519.36 72.08 519.38 72 519.28 72 519.29 71.93 519.2 71.93 519.21 71.86 519.12 71.86 519.13 71.78 519.03 71.78 519.05 71.71 518.95 71.71 518.97 71.64 518.87 71.64 518.89 71.56 518.79 71.56 518.81 71.49 518.71 71.49 518.73 71.42 518.63 71.42 518.65 71.35 518.55 71.35 518.57 71.27 518.47 71.27 518.49 71.2 518.39 71.2 518.4 71.13 518.31 71.13 518.32 71.06 518.23 71.06 518.24 70.98 518.14 70.98 518.16 70.91 518.06 70.91 518.08 70.84 517.98 70.84 518 70.76 517.9 70.76 517.92 70.69 517.82 70.69 517.84 70.62 517.74 70.62 517.76 70.54 517.66 70.54 517.67 70.47 517.58 70.47 517.59 70.4 517.5 70.4 517.51 70.33 517.41 70.33 517.43 70.25 517.33 70.25 517.35 70.18 517.25 70.18 517.27 70.11 517.17 70.11 517.19 70.03 517.09 70.03 517.11 69.96 517.01 69.96 517.03 69.89 516.93 69.89 516.95 69.81 516.85 69.81 516.87 69.74 501.49 69.74 500.9 72.3 500.89 72.3 500.9 72.22 500.81 72.22 500.82 72.15 500.73 72.15 500.74 72.08 500.64 72.08 500.66 72 500.56 72 500.58 71.93 500.48 71.93 500.5 71.86 500.4 71.86 500.42 71.78 500.32 71.78 500.34 71.71 500.24 71.71 500.26 71.64 500.16 71.64 500.18 71.56 500.08 71.56 500.09 71.49 500 71.49 500.01 71.42 499.92 71.42 499.93 71.35 499.83 71.35 499.85 71.27 499.75 71.27 499.77 71.2 499.67 71.2 499.69 71.13 499.59 71.13 499.61 71.06 499.51 71.06 499.53 70.98 499.43 70.98 499.45 70.91 499.35 70.91 499.37 70.84 499.27 70.84 499.28 70.76 499.19 70.76 499.2 70.69 499.11 70.69 499.12 70.62 499.02 70.62 499.04 70.54 498.94 70.54 498.96 70.47 498.86 70.47 498.88 70.4 498.78 70.4 498.8 70.33 498.7 70.33 498.72 70.25 498.62 70.25 498.64 70.18 498.54 70.18 498.56 70.11 498.46 70.11 498.48 70.03 498.38 70.03 498.39 69.96 498.3 69.96 498.31 69.89 498.21 69.89 498.23 69.81 498.13 69.81 498.15 69.74 481.6 69.74 479.48 78.96 479.47 78.94 479.44 78.94 479.39 78.87 479.36 78.87 479.31 78.8 479.28 78.8 479.23 78.72 479.2 78.72 479.15 78.65 479.12 78.65 479.07 78.58 479.04 78.58 478.99 78.51 478.96 78.51 478.9 78.43 478.88 78.43 478.82 78.36 478.8 78.36 478.74 78.29 478.72 78.29 478.66 78.22 478.64 78.22 478.58 78.14 478.56 78.14 478.5 78.07 478.47 78.07 478.42 78 478.39 78 478.34 77.92 478.31 77.92 478.26 77.85 478.23 77.85 478.18 77.78 478.15 77.78 478.1 77.7 478.07 77.7 478.01 77.63 477.99 77.63 477.93 77.56 477.91 77.56 477.85 77.48 477.83 77.48 477.77 77.41 477.75 77.41 477.69 77.34 477.66 77.34 477.61 77.27 477.58 77.27 477.53 77.19 477.5 77.19 477.45 77.12 477.42 77.12 477.37 77.05 477.34 77.05 477.29 76.97 477.26 76.97 477.2 76.9 477.18 76.9 477.12 76.83 477.1 76.83 477.04 76.76 477.02 76.76 476.96 76.68 476.94 76.68 476.88 76.61 476.85 76.61 476.8 76.54 476.77 76.54 476.72 76.46 476.69 76.46 476.64 76.39 476.61 76.39 476.56 76.32 476.53 76.32 476.48 76.25 476.45 76.25 476.39 76.17 476.37 76.17 476.31 76.1 476.29 76.1 476.23 76.03 476.21 76.03 476.15 75.95 476.13 75.95 476.07 75.88 476.05 75.88 475.99 75.81 475.96 75.81 475.91 75.73 475.88 75.73 475.83 75.66 475.8 75.66 475.75 75.59 475.72 75.59 475.67 75.52 475.64 75.52 475.58 75.44 475.56 75.44 475.5 75.37 475.48 75.37 475.42 75.3 475.4 75.3 475.34 75.22 475.32 75.22 475.26 75.15 475.24 75.15 475.18 75.08 475.15 75.08 475.1 75 475.07 75 475.02 74.93 474.99 74.93 474.94 74.86 474.91 74.86 474.86 74.79 474.83 74.79 474.77 74.71 474.75 74.71 474.69 74.64 474.67 74.64 474.61 74.57 474.59 74.57 474.53 74.5 474.51 74.5 474.45 74.42 474.43 74.42 474.37 74.35 474.34 74.35 474.29 74.28 474.26 74.28 474.21 74.2 474.18 74.2 474.13 74.13 474.1 74.13 474.05 74.06 474.02 74.06 473.96 73.98 473.94 73.98 473.88 73.91 473.86 73.91 473.8 73.84 473.78 73.84 473.72 73.77 473.7 73.77 473.64 73.69 473.62 73.69 473.56 73.62 473.54 73.62 473.48 73.55 473.45 73.55 473.4 73.47 473.37 73.47 473.32 73.4 473.29 73.4 473.24 73.33 473.21 73.33 473.16 73.25 473.13 73.25 473.07 73.18 473.05 73.18 472.99 73.11 472.97 73.11 472.91 73.04 472.89 73.04 472.83 72.96 472.81 72.96 472.75 72.89 472.73 72.89 472.67 72.82 472.64 72.82 472.59 72.74 472.56 72.74 472.51 72.67 472.48 72.67 472.43 72.6 472.4 72.6 472.35 72.53 472.32 72.53 472.26 72.45 472.24 72.45 472.18 72.38 472.16 72.38 472.1 72.31 472.08 72.31 472.02 72.23 472 72.23 471.94 72.16 471.92 72.16 471.86 72.09 471.83 72.09 471.78 72.01 471.75 72.01 471.7 71.94 471.67 71.94 471.62 71.87 471.59 71.87 471.54 71.8 471.51 71.8 471.45 71.72 471.43 71.72 471.37 71.65 471.35 71.65 471.29 71.58 471.27 71.58 471.21 71.5 471.19 71.5 471.13 71.43 471.11 71.43 471.05 71.36 471.02 71.36 470.97 71.28 470.94 71.28 470.89 71.21 470.86 71.21 470.81 71.14 470.78 71.14 470.73 71.07 470.7 71.07 470.65 70.99 470.62 70.99 470.56 70.92 470.54 70.92 470.48 70.85 470.46 70.85 470.4 70.77 470.38 70.77 470.32 70.7 470.3 70.7 470.24 70.63 470.21 70.63 470.16 70.56 470.13 70.56 470.08 70.48 470.05 70.48 470 70.41 469.97 70.41 469.92 70.34 469.89 70.34 469.84 70.26 469.81 70.26 469.75 70.19 469.73 70.19 469.67 70.12 469.65 70.12 469.59 70.05 469.57 70.05 469.51 69.97 469.49 69.97 469.43 69.9 469.4 69.9 469.35 69.83 469.32 69.83 469.27 69.75 469.24 69.75 469.19 69.68 443.99 69.68 434.17 77.77 433.8 79.37 433.78 79.37 433.72 79.3 433.7 79.3 433.64 79.22 433.62 79.22 433.56 79.15 433.54 79.15 433.48 79.08 433.45 79.08 433.4 79.01 433.37 79.01 433.32 78.93 433.29 78.93 433.24 78.86 433.21 78.86 433.15 78.79 433.13 78.79 433.07 78.71 433.05 78.71 432.99 78.64 432.97 78.64 432.91 78.57 432.89 78.57 432.83 78.5 432.81 78.5 432.75 78.42 432.73 78.42 432.67 78.35 432.64 78.35 432.59 78.28 432.56 78.28 432.51 78.2 432.48 78.2 432.43 78.13 432.4 78.13 432.35 78.06 432.32 78.06 432.26 77.98 432.24 77.98 432.18 77.91 432.16 77.91 432.1 77.84 432.08 77.84 432.02 77.77 432 77.77 431.94 77.69 431.92 77.69 431.86 77.62 431.84 77.62 431.78 77.55 431.75 77.55 431.7 77.47 431.67 77.47 431.62 77.4 431.59 77.4 431.54 77.33 431.51 77.33 431.45 77.25 431.43 77.25 431.37 77.18 431.35 77.18 431.29 77.11 431.27 77.11 431.21 77.04 431.19 77.04 431.13 76.96 431.11 76.96 431.05 76.89 431.03 76.89 430.97 76.82 430.94 76.82 430.89 76.75 430.86 76.75 430.81 76.67 430.78 76.67 430.73 76.6 430.7 76.6 430.64 76.53 430.62 76.53 430.56 76.45 430.54 76.45 430.48 76.38 430.46 76.38 430.4 76.31 430.38 76.31 430.32 76.23 430.3 76.23 430.24 76.16 430.22 76.16 430.16 76.09 430.13 76.09 430.08 76.02 430.05 76.02 430 75.94 429.97 75.94 429.92 75.87 429.89 75.87 429.83 75.8 429.81 75.8 429.75 75.72 429.73 75.72 429.67 75.65 429.65 75.65 429.59 75.58 429.57 75.58 429.51 75.5 429.49 75.5 429.43 75.43 429.41 75.43 429.35 75.36 429.33 75.36 429.27 75.29 429.25 75.29 429.19 75.21 429.16 75.21 429.11 75.14 429.08 75.14 429.02 75.07 429 75.07 428.94 74.99 428.92 74.99 428.86 74.92 428.84 74.92 428.78 74.85 428.76 74.85 428.7 74.78 428.68 74.78 428.62 74.7 428.6 74.7 428.54 74.63 428.52 74.63 428.46 74.56 428.44 74.56 428.38 74.48 428.35 74.48 428.3 74.41 428.27 74.41 428.22 74.34 428.19 74.34 428.13 74.26 428.11 74.26 428.05 74.19 428.03 74.19 427.97 74.12 427.95 74.12 427.89 74.05 427.87 74.05 427.81 73.97 427.79 73.97 427.73 73.9 427.71 73.9 427.65 73.83 427.63 73.83 427.57 73.75 427.54 73.75 427.49 73.68 427.46 73.68 427.41 73.61 427.38 73.61 427.32 73.53 427.3 73.53 427.24 73.46 427.22 73.46 427.16 73.39 427.14 73.39 427.08 73.32 427.06 73.32 427 73.24 426.98 73.24 426.92 73.17 426.9 73.17 426.84 73.1 426.82 73.1 426.76 73.02 426.74 73.02 426.68 72.95 426.65 72.95 426.6 72.88 426.57 72.88 426.51 72.81 426.49 72.81 426.43 72.73 426.41 72.73 426.35 72.66 426.33 72.66 426.27 72.59 426.25 72.59 426.19 72.51 426.17 72.51 426.11 72.44 426.09 72.44 426.03 72.37 426.01 72.37 425.95 72.3 425.93 72.3 425.87 72.22 425.84 72.22 425.79 72.15 425.76 72.15 425.71 72.08 425.68 72.08 425.63 72 425.6 72 425.54 71.93 425.52 71.93 425.46 71.86 425.44 71.86 425.38 71.78 425.36 71.78 425.3 71.71 425.28 71.71 425.22 71.64 425.2 71.64 425.14 71.56 425.12 71.56 425.06 71.49 425.03 71.49 424.98 71.42 424.95 71.42 424.9 71.35 424.87 71.35 424.81 71.27 424.79 71.27 424.73 71.2 424.71 71.2 424.65 71.13 424.63 71.13 424.57 71.06 424.55 71.06 424.49 70.98 424.47 70.98 424.41 70.91 424.39 70.91 424.33 70.84 424.31 70.84 424.25 70.76 424.23 70.76 424.17 70.69 424.14 70.69 424.09 70.62 424.06 70.62 424 70.54 423.98 70.54 423.92 70.47 423.9 70.47 423.84 70.4 423.82 70.4 423.76 70.33 423.74 70.33 423.68 70.25 423.66 70.25 423.6 70.18 423.58 70.18 423.52 70.11 423.5 70.11 423.44 70.03 423.42 70.03 423.36 69.96 423.33 69.96 423.28 69.89 423.25 69.89 423.2 69.81 423.17 69.81 423.12 69.74 390.69 69.74 384.1 98.34 384.02 98.34 384.03 98.27 383.94 98.27 383.95 98.19 383.86 98.19 383.87 98.12 383.77 98.12 383.79 98.05 383.69 98.05 383.71 97.98 383.61 97.98 383.63 97.9 383.53 97.9 383.55 97.83 383.45 97.83 383.47 97.76 383.37 97.76 383.39 97.68 383.29 97.68 383.31 97.61 383.21 97.61 383.22 97.54 383.13 97.54 383.14 97.47 383.05 97.47 383.06 97.39 382.96 97.39 382.98 97.32 382.88 97.32 382.9 97.25 382.8 97.25 382.82 97.17 382.72 97.17 382.74 97.1 382.64 97.1 382.66 97.03 382.56 97.03 382.58 96.95 382.48 96.95 382.5 96.88 382.4 96.88 382.42 96.81 382.32 96.81 382.33 96.74 382.24 96.74 382.25 96.66 382.15 96.66 382.17 96.59 382.07 96.59 382.09 96.52 381.99 96.52 382.01 96.44 381.91 96.44 381.93 96.37 381.83 96.37 381.85 96.3 381.75 96.3 381.77 96.22 381.67 96.22 381.69 96.15 381.59 96.15 381.61 96.08 381.51 96.08 381.52 96.01 381.43 96.01 381.44 95.93 381.35 95.93 381.36 95.86 381.26 95.86 381.28 95.79 381.18 95.79 381.2 95.72 381.1 95.72 381.12 95.64 381.02 95.64 381.04 95.57 380.94 95.57 380.96 95.5 380.86 95.5 380.88 95.42 380.78 95.42 380.8 95.35 380.7 95.35 380.71 95.28 380.62 95.28 380.63 95.2 380.54 95.2 380.55 95.13 380.45 95.13 380.47 95.06 380.37 95.06 380.39 94.98 380.29 94.98 380.31 94.91 380.21 94.91 380.23 94.84 380.13 94.84 380.15 94.77 380.05 94.77 380.07 94.69 363.7 94.69 359.94 110.88 360.03 110.88 360.02 110.95 360.11 110.95 360.1 111.02 360.19 111.02 360.18 111.09 360.28 111.09 360.26 111.17 360.36 111.17 360.34 111.24 360.44 111.24 360.42 111.31 360.52 111.31 360.5 111.39 360.6 111.39 360.58 111.46 360.68 111.46 360.66 111.53 360.76 111.53 360.75 111.6 360.84 111.6 360.83 111.68 360.92 111.68 360.91 111.75 361 111.75 360.99 111.82 361.08 111.82 361.07 111.9 361.17 111.9 361.15 111.97 361.25 111.97 361.23 112.04 361.33 112.04 361.31 112.11 361.41 112.11 361.39 112.19 361.49 112.19 361.47 112.26 361.57 112.26 361.55 112.33 361.65 112.33 361.63 112.41 361.73 112.41 361.72 112.48 361.81 112.48 361.8 112.55 361.89 112.55 361.88 112.63 361.98 112.63 361.96 112.7 362.06 112.7 362.04 112.77 362.14 112.77 362.12 112.84 362.22 112.84 362.2 112.92 362.3 112.92 362.28 112.99 362.38 112.99 362.36 113.06 362.46 113.06 362.44 113.14 362.54 113.14 362.53 113.21 362.62 113.21 362.61 113.28 362.7 113.28 362.69 113.36 362.79 113.36 362.77 113.43 362.87 113.43 362.85 113.5 362.95 113.5 362.93 113.57 363.03 113.57 363.01 113.65 363.11 113.65 363.09 113.72 363.19 113.72 363.17 113.79 363.27 113.79 363.25 113.87 363.35 113.87 363.34 113.94 363.43 113.94 363.42 114.01 363.51 114.01 363.5 114.08 363.6 114.08 363.58 114.16 363.68 114.16 363.66 114.23 363.76 114.23 363.74 114.3 363.84 114.3 363.82 114.38 363.92 114.38 363.9 114.45 364 114.45 363.98 114.52 364.08 114.52 364.06 114.59 364.16 114.59 364.14 114.67 364.24 114.67 364.23 114.74 364.32 114.74 364.31 114.81 364.4 114.81 364.39 114.89 364.49 114.89 364.47 114.96 364.57 114.96 364.55 115.03 364.65 115.03 364.63 115.11 364.73 115.11 364.71 115.18 364.81 115.18 364.79 115.25 364.89 115.25 364.87 115.33 364.97 115.33 364.95 115.4 365.05 115.4 365.04 115.47 365.13 115.47 365.12 115.54 365.21 115.54 365.2 115.62 365.3 115.62 365.28 115.69 365.38 115.69 365.36 115.76 365.46 115.76 365.44 115.83 365.54 115.83 365.52 115.91 365.62 115.91 365.6 115.98 365.7 115.98 365.68 116.05 365.78 116.05 365.76 116.13 365.86 116.13 365.85 116.2 365.94 116.2 365.93 116.27 366.02 116.27 366.01 116.35 366.11 116.35 366.09 116.42 366.19 116.42 366.17 116.49 366.27 116.49 366.25 116.56 366.35 116.56 366.33 116.64 366.43 116.64 366.41 116.71 366.51 116.71 366.49 116.78 366.59 116.78 366.57 116.86 366.67 116.86 366.65 116.93 366.75 116.93 366.74 117 366.83 117 366.82 117.08 366.92 117.08 366.9 117.15 367 117.15 366.98 117.22 367.08 117.22 367.06 117.29 367.16 117.29 367.14 117.37 367.24 117.37 367.22 117.44 367.32 117.44 367.3 117.51 367.4 117.51 367.38 117.59 367.48 117.59 367.46 117.66 367.56 117.66 367.55 117.73 367.64 117.73 367.63 117.81 367.73 117.81 367.71 117.88 367.81 117.88 367.79 117.95 367.89 117.95 367.87 118.02 367.97 118.02 367.95 118.1 368.05 118.1 368.03 118.17 368.13 118.17 368.11 118.24 368.21 118.24 368.19 118.31 368.29 118.31 368.27 118.39 368.37 118.39 368.36 118.46 368.45 118.46 368.44 118.53 368.54 118.53 368.52 118.61 368.62 118.61 368.6 118.68 368.7 118.68 368.68 118.75 368.78 118.75 368.76 118.83 368.86 118.83 368.84 118.9 368.94 118.9 368.92 118.97 369.02 118.97 369 119.05 369.1 119.05 369.08 119.12 369.18 119.12 369.17 119.19 369.26 119.19 369.25 119.26 369.34 119.26 369.33 119.34 369.43 119.34 369.41 119.41 369.51 119.41 369.49 119.48 369.59 119.48 369.57 119.56 369.67 119.56 369.65 119.63 369.75 119.63 369.73 119.7 369.83 119.7 369.81 119.77 369.91 119.77 369.89 119.85 369.99 119.85 369.98 119.92 370.07 119.92 370.06 119.99 370.15 119.99 370.14 120.07 370.24 120.07 370.22 120.14 370.32 120.14 370.3 120.21 370.4 120.21 370.38 120.28 370.48 120.28 370.46 120.36 370.56 120.36 370.54 120.43 370.64 120.43 370.62 120.5 370.72 120.5 370.7 120.58 370.8 120.58 370.79 120.65 370.88 120.65 370.87 120.72 370.96 120.72 370.95 120.8 371.05 120.8 371.03 120.87 371.13 120.87 371.11 120.94 371.21 120.94 371.19 121.01 371.29 121.01 371.27 121.09 371.37 121.09 371.35 121.16 371.45 121.16 371.43 121.23 371.53 121.23 371.51 121.31 371.61 121.31 371.59 121.38 371.69 121.38 371.68 121.45 371.77 121.45 371.76 121.53 371.85 121.53 371.84 121.6 371.94 121.6 371.92 121.67 372.02 121.67 372 121.74 372.1 121.74 372.08 121.82 372.18 121.82 372.16 121.89 372.26 121.89 372.24 121.96 372.34 121.96 372.32 122.03 372.42 122.03 372.4 122.11 372.5 122.11 372.49 122.18 372.58 122.18 372.57 122.25 372.66 122.25 372.65 122.33 372.75 122.33 372.73 122.4 372.83 122.4 372.81 122.47 372.91 122.47 372.89 122.55 372.99 122.55 372.97 122.62 373.07 122.62 373.05 122.69 373.15 122.69 373.13 122.77 373.23 122.77 373.21 122.84 373.31 122.84 373.3 122.91 373.39 122.91 373.38 122.98 373.47 122.98 373.46 123.06 373.56 123.06 373.54 123.13 373.64 123.13 373.62 123.2 373.72 123.2 373.7 123.28 373.8 123.28 373.78 123.35 373.88 123.35 373.86 123.42 373.96 123.42 373.94 123.49 374.04 123.49 374.02 123.57 374.12 123.57 374.1 123.64 374.2 123.64 374.19 123.71 374.28 123.71 374.27 123.79 374.36 123.79 374.35 123.86 374.44 123.86 374.43 123.93 374.53 123.93 374.51 124 374.61 124 374.59 124.08 374.69 124.08 374.67 124.15 374.77 124.15 374.75 124.22 374.85 124.22 374.83 124.3 374.93 124.3 374.91 124.37 375.01 124.37 375 124.44 375.09 124.44 375.08 124.52 375.17 124.52 375.16 124.59 375.25 124.59 375.24 124.66 375.34 124.66 375.32 124.73 375.42 124.73 375.4 124.81 375.5 124.81 375.48 124.88 375.58 124.88 375.56 124.95 375.66 124.95 375.64 125.03 375.74 125.03 375.72 125.1 375.82 125.1 375.81 125.17 375.9 125.17 375.89 125.25 375.98 125.25 375.97 125.32 376.06 125.32 376.05 125.39 376.15 125.39 376.13 125.46 376.23 125.46 376.21 125.54 376.31 125.54 376.29 125.61 376.39 125.61 376.37 125.68 376.47 125.68 376.45 125.76 376.55 125.76 376.53 125.83 376.63 125.83 376.61 125.9 376.71 125.9 376.69 125.97 376.79 125.97 376.78 126.05 376.87 126.05 376.86 126.12 376.95 126.12 376.94 126.19 377.04 126.19 377.02 126.27 377.12 126.27 377.1 126.34 377.2 126.34 377.18 126.41 377.28 126.41 377.26 126.48 377.36 126.48 377.34 126.56 377.44 126.56 377.42 126.63 377.52 126.63 377.5 126.7 377.6 126.7 377.59 126.78 377.68 126.78 377.67 126.85 377.76 126.85 377.75 126.92 377.85 126.92 377.83 127 377.93 127 377.91 127.07 378.01 127.07 377.99 127.14 378.09 127.14 378.07 127.22 378.17 127.22 378.15 127.29 378.25 127.29 378.23 127.36 378.33 127.36 378.31 127.43 378.41 127.43 378.4 127.51 378.49 127.51 378.48 127.58 378.57 127.58 378.56 127.65 378.66 127.65 378.64 127.72 378.74 127.72 378.72 127.8 378.82 127.8 378.8 127.87 378.9 127.87 378.88 127.94 378.98 127.94 378.96 128.02 379.06 128.02 379.04 128.09 379.14 128.09 379.12 128.16 379.22 128.16 379.2 128.24 379.3 128.24 379.29 128.31 379.38 128.31 379.37 128.38 379.46 128.38 379.45 128.46 379.55 128.46 379.53 128.53 379.63 128.53 379.61 128.6 379.71 128.6 379.69 128.67 379.79 128.67 379.77 128.75 379.87 128.75 379.85 128.82 379.95 128.82 379.93 128.89 380.03 128.89 380.01 128.97 380.11 128.97 380.1 129.04 380.19 129.04 380.18 129.11 380.27 129.11 380.26 129.18 380.36 129.18 380.34 129.26 380.44 129.26 380.42 129.33 380.52 129.33 380.5 129.4 380.6 129.4 380.58 129.48 380.68 129.48 380.66 129.55 380.76 129.55 380.74 129.62 380.84 129.62 380.82 129.69 380.92 129.69 380.91 129.77 381 129.77 380.99 129.84 381.08 129.84 381.07 129.91 381.17 129.91 381.15 129.99 381.25 129.99 381.23 130.06 381.33 130.06 381.31 130.13 381.41 130.13 381.39 130.21 381.49 130.21 381.47 130.28 381.57 130.28 381.55 130.35 381.65 130.35 381.63 130.42 381.73 130.42 381.71 130.5 381.81 130.5 381.8 130.57 381.89 130.57 381.88 130.64 381.98 130.64 381.96 130.72 382.06 130.72 382.04 130.79 382.14 130.79 382.12 130.86 382.22 130.86 382.2 130.94 382.3 130.94 382.28 131.01 382.38 131.01 382.36 131.08 382.46 131.08 382.44 131.15 382.54 131.15 382.52 131.23 382.62 131.23 382.61 131.3 382.7 131.3 382.69 131.37 382.79 131.37 382.77 131.44 382.87 131.44 382.85 131.52 382.95 131.52 382.93 131.59 383.03 131.59 383.01 131.66 383.11 131.66 383.09 131.74 383.19 131.74 383.17 131.81 383.27 131.81 383.25 131.88 383.35 131.88 383.33 131.96 383.43 131.96 383.42 132.03 383.51 132.03 383.5 132.1 383.6 132.1 383.58 132.18 383.68 132.18 383.66 132.25 383.76 132.25 383.74 132.32 383.84 132.32 383.82 132.39 383.92 132.39 383.9 132.47 384 132.47 383.98 132.54 384.08 132.54 384.06 132.61 384.16 132.61 384.14 132.69 384.24 132.69 384.23 132.76 384.32 132.76 384.31 132.83 384.4 132.83 384.39 132.9 384.49 132.9 384.47 132.98 384.57 132.98 384.55 133.05 384.65 133.05 384.63 133.12 384.73 133.12 384.71 133.2 384.81 133.2 384.79 133.27 384.89 133.27 384.87 133.34 384.97 133.34 384.95 133.41 385.05 133.41 385.04 133.49 385.13 133.49 385.12 133.56 385.21 133.56 385.2 133.63 385.3 133.63 385.28 133.71 385.38 133.71 385.36 133.78 385.46 133.78 385.44 133.85 385.54 133.85 385.52 133.93 385.62 133.93 385.6 134 385.7 134 385.68 134.07 385.78 134.07 385.76 134.14 385.86 134.14 385.85 134.22 385.94 134.22 385.93 134.29 386.02 134.29 386.01 134.36 386.11 134.36 386.09 134.44 386.19 134.44 386.17 134.51 386.27 134.51 386.25 134.58 386.35 134.58 386.33 134.66 386.43 134.66 386.41 134.73 386.51 134.73 386.49 134.8 386.59 134.8 386.57 134.87 386.67 134.87 386.65 134.95 386.75 134.95 386.74 135.02 386.83 135.02 386.82 135.09 386.91 135.09 386.9 135.16 387 135.16 386.98 135.24 387.08 135.24 387.06 135.31 387.16 135.31 387.14 135.38 387.24 135.38 387.22 135.46 387.32 135.46 387.3 135.53 387.4 135.53 387.38 135.6 387.48 135.6 387.46 135.68 387.56 135.68 387.55 135.75 387.64 135.75 387.63 135.82 387.72 135.82 387.71 135.9 387.81 135.9 387.79 135.97 387.89 135.97 387.87 136.04 387.97 136.04 387.95 136.11 388.05 136.11 388.03 136.19 388.13 136.19 388.11 136.26 388.21 136.26 388.19 136.33 388.29 136.33 388.27 136.41 388.37 136.41 388.36 136.48 388.45 136.48 388.44 136.55 388.53 136.55 388.52 136.62 388.62 136.62 388.6 136.7 388.7 136.7 388.68 136.77 388.78 136.77 388.76 136.84 388.86 136.84 388.84 136.92 388.94 136.92 388.92 136.99 389.02 136.99 389 137.06 389.1 137.06 389.08 137.13 389.18 137.13 389.17 137.21 389.26 137.21 389.25 137.28 389.34 137.28 389.33 137.35 389.42 137.35 389.41 137.43 389.5 137.43 389.49 137.5 389.59 137.5 389.57 137.57 389.67 137.57 389.65 137.65 389.75 137.65 389.73 137.72 389.83 137.72 389.81 137.79 389.91 137.79 389.89 137.86 389.99 137.86 389.97 137.94 390.07 137.94 390.06 138.01 390.15 138.01 390.14 138.08 390.23 138.08 390.22 138.16 390.31 138.16 390.3 138.23 390.4 138.23 390.38 138.3 390.48 138.3 390.46 138.38 390.56 138.38 390.54 138.45 390.64 138.45 390.62 138.52 390.72 138.52 390.7 138.59 390.8 138.59 390.78 138.67 390.88 138.67 390.87 138.74 390.96 138.74 390.95 138.81 391.04 138.81 391.03 138.89 391.13 138.89 391.11 138.96 391.21 138.96 391.19 139.03 391.29 139.03 391.27 139.1 391.37 139.1 391.35 139.18 391.45 139.18 391.43 139.25 391.53 139.25 391.51 139.32 391.61 139.32 391.59 139.4 391.69 139.4 391.68 139.47 391.77 139.47 391.76 139.54 391.85 139.54 391.84 139.62 391.94 139.62 391.92 139.69 392.01 139.69 392 139.76 392.1 139.76 392.08 139.83 392.18 139.83 392.16 139.91 392.26 139.91 392.24 139.98 392.34 139.98 392.32 140.05 392.42 140.05 392.4 140.13 392.5 140.13 392.48 140.2 392.58 140.2 392.56 140.27 392.66 140.27 392.65 140.34 392.74 140.34 392.73 140.42 392.82 140.42 392.81 140.49 392.91 140.49 392.89 140.56 392.99 140.56 392.97 140.64 393.07 140.64 393.05 140.71 393.15 140.71 393.13 140.78 393.23 140.78 393.21 140.85 393.31 140.85 393.29 140.93 393.39 140.93 393.38 141 393.47 141 393.46 141.07 393.55 141.07 393.54 141.15 393.63 141.15 393.62 141.22 393.72 141.22 393.7 141.29 393.8 141.29 393.78 141.37 393.88 141.37 393.86 141.44 393.96 141.44 393.94 141.51 410.31 141.51 411.14 137.91 411.15 137.91 411.14 137.99 411.24 137.99 411.22 138.06 411.32 138.06 411.3 138.13 411.4 138.13 411.38 138.21 411.48 138.21 411.46 138.28 411.56 138.28 411.54 138.35 411.64 138.35 411.62 138.43 411.72 138.43 411.7 138.5 411.8 138.5 411.79 138.57 411.88 138.57 411.87 138.64 411.96 138.64 411.95 138.72 412.05 138.72 412.03 138.79 412.13 138.79 412.11 138.86 412.21 138.86 412.19 138.94 412.29 138.94 412.27 139.01 412.37 139.01 412.35 139.08 412.45 139.08 412.43 139.16 412.53 139.16 412.51 139.23 412.61 139.23 412.6 139.3 412.69 139.3 412.68 139.37 412.77 139.37 412.76 139.45 412.86 139.45 412.84 139.52 412.94 139.52 412.92 139.59 413.02 139.59 413 139.66 413.1 139.66 413.08 139.74 413.18 139.74 413.16 139.81 413.26 139.81 413.24 139.88 413.34 139.88 413.32 139.96 413.42 139.96 413.4 140.03 413.5 140.03 413.49 140.1 413.58 140.1 413.57 140.18 413.67 140.18 413.65 140.25 413.75 140.25 413.73 140.32 413.83 140.32 413.81 140.4 413.91 140.4 413.89 140.47 413.99 140.47 413.97 140.54 414.07 140.54 414.05 140.61 414.15 140.61 414.13 140.69 414.23 140.69 414.21 140.76 414.31 140.76 414.3 140.83 414.39 140.83 414.38 140.91 414.48 140.91 414.46 140.98 414.56 140.98 414.54 141.05 414.64 141.05 414.62 141.12 414.72 141.12 414.7 141.2 414.8 141.2 414.78 141.27 414.88 141.27 414.86 141.34 414.96 141.34 414.94 141.42 415.04 141.42 415.02 141.49 415.12 141.49 415.11 141.56 415.2 141.56 415.19 141.63 433.47 141.63 434.15 138.64 434.2 138.64 434.18 138.72 434.28 138.72 434.26 138.79 434.36 138.79 434.34 138.86 434.44 138.86 434.42 138.94 434.52 138.94 434.5 139.01 434.6 139.01 434.58 139.08 434.68 139.08 434.67 139.16 434.76 139.16 434.75 139.23 434.85 139.23 434.83 139.3 434.93 139.3 434.91 139.37 435.01 139.37 434.99 139.45 435.09 139.45 435.07 139.52 435.17 139.52 435.15 139.59 435.25 139.59 435.23 139.66 435.33 139.66 435.31 139.74 435.41 139.74 435.39 139.81 435.49 139.81 435.48 139.88 435.57 139.88 435.56 139.96 435.65 139.96 435.64 140.03 435.74 140.03 435.72 140.1 435.82 140.1 435.8 140.18 435.9 140.18 435.88 140.25 435.98 140.25 435.96 140.32 436.06 140.32 436.04 140.4 436.14 140.4 436.12 140.47 436.22 140.47 436.2 140.54 436.3 140.54 436.29 140.61 436.38 140.61 436.37 140.69 436.46 140.69 436.45 140.76 436.55 140.76 436.53 140.83 436.63 140.83 436.61 140.91 436.71 140.91 436.69 140.98 436.79 140.98 436.77 141.05 436.87 141.05 436.85 141.12 436.95 141.12 436.93 141.2 437.03 141.2 437.01 141.27 437.11 141.27 437.1 141.34 437.19 141.34 437.18 141.42 437.27 141.42 437.26 141.49 437.36 141.49 437.34 141.56 437.44 141.56 437.42 141.63 455.89 141.63 457.98 132.58 458 132.61 458.02 132.61 458.08 132.68 458.11 132.68 458.16 132.75 458.19 132.75 458.24 132.83 458.27 132.83 458.32 132.9 458.35 132.9 458.4 132.97 458.43 132.97 458.48 133.04 458.51 133.04 458.56 133.12 458.59 133.12 458.65 133.19 458.67 133.19 458.73 133.26 458.75 133.26 458.81 133.34 458.83 133.34 458.89 133.41 458.92 133.41 458.97 133.48 459 133.48 459.05 133.56 459.08 133.56 459.13 133.63 459.16 133.63 459.21 133.7 459.24 133.7 459.29 133.77 459.32 133.77 459.38 133.85 459.4 133.85 459.46 133.92 459.48 133.92 459.54 133.99 459.56 133.99 459.62 134.07 459.64 134.07 459.7 134.14 459.73 134.14 459.78 134.21 459.81 134.21 459.86 134.28 459.89 134.28 459.94 134.36 459.97 134.36 460.02 134.43 460.05 134.43 460.1 134.5 460.13 134.5 460.18 134.58 460.21 134.58 460.26 134.65 460.29 134.65 460.35 134.72 460.37 134.72 460.43 134.79 460.45 134.79 460.51 134.87 460.54 134.87 460.59 134.94 460.62 134.94 460.67 135.01 460.7 135.01 460.75 135.09 460.78 135.09 460.83 135.16 460.86 135.16 460.91 135.23 460.94 135.23 460.99 135.31 461.02 135.31 461.07 135.38 461.1 135.38 461.16 135.45 461.18 135.45 461.24 135.53 461.26 135.53 461.32 135.6 461.35 135.6 461.4 135.67 461.43 135.67 461.48 135.74 461.51 135.74 461.56 135.82 461.59 135.82 461.64 135.89 461.67 135.89 461.72 135.96 461.75 135.96 461.8 136.03 461.83 136.03 461.88 136.11 461.91 136.11 461.97 136.18 461.99 136.18 462.05 136.25 462.07 136.25 462.13 136.33 462.15 136.33 462.21 136.4 462.24 136.4 462.29 136.47 462.32 136.47 462.37 136.55 462.4 136.55 462.45 136.62 462.48 136.62 462.53 136.69 462.56 136.69 462.61 136.76 462.64 136.76 462.69 136.84 462.72 136.84 462.77 136.91 462.8 136.91 462.86 136.98 462.88 136.98 462.94 137.06 462.96 137.06 463.02 137.13 463.05 137.13 463.1 137.2 463.13 137.2 463.18 137.28 463.21 137.28 463.26 137.35 463.29 137.35 463.34 137.42 463.37 137.42 463.42 137.49 463.45 137.49 463.5 137.57 463.53 137.57 463.58 137.64 463.61 137.64 463.67 137.71 463.69 137.71 463.75 137.79 463.77 137.79 463.83 137.86 463.86 137.86 463.91 137.93 463.94 137.93 463.99 138 464.02 138 464.07 138.08 464.1 138.08 464.15 138.15 464.18 138.15 464.23 138.22 464.26 138.22 464.31 138.3 464.34 138.3 464.39 138.37 464.42 138.37 464.48 138.44 464.5 138.44 464.56 138.51 464.58 138.51 464.64 138.59 464.66 138.59 464.72 138.66 464.75 138.66 464.8 138.73 464.83 138.73 464.88 138.81 464.91 138.81 464.96 138.88 464.99 138.88 465.04 138.95 465.07 138.95 465.12 139.03 465.15 139.03 465.2 139.1 465.23 139.1 465.29 139.17 465.31 139.17 465.37 139.25 465.39 139.25 465.45 139.32 465.47 139.32 465.53 139.39 465.56 139.39 465.61 139.46 465.64 139.46 465.69 139.54 465.72 139.54 465.77 139.61 465.8 139.61 465.85 139.68 465.88 139.68 465.93 139.76 465.96 139.76 466.01 139.83 466.04 139.83 466.1 139.9 466.12 139.9 466.18 139.97 466.2 139.97 466.26 140.05 466.28 140.05 466.34 140.12 466.37 140.12 466.42 140.19 466.45 140.19 466.5 140.27 466.53 140.27 466.58 140.34 466.61 140.34 466.66 140.41 466.69 140.41 466.74 140.49 466.77 140.49 466.82 140.56 466.85 140.56 466.9 140.63 466.93 140.63 466.99 140.7 467.01 140.7 467.07 140.78 467.09 140.78 467.15 140.85 467.17 140.85 467.23 140.92 467.25 140.92 467.31 141 467.34 141 467.39 141.07 467.42 141.07 467.47 141.14 467.5 141.14 467.55 141.21 467.58 141.21 467.63 141.29 467.66 141.29 467.71 141.36 467.74 141.36 467.8 141.43 467.82 141.43 467.88 141.51 467.9 141.51 467.96 141.58 467.98 141.58 468.04 141.65 468.06 141.65 468.12 141.72 468.15 141.72 468.2 141.8 468.23 141.8 468.28 141.87 468.31 141.87 468.36 141.94 493.56 141.94 503.44 133.79 503.74 132.48 503.76 132.52 503.81 132.52 503.84 132.59 503.89 132.59 503.92 132.66 503.97 132.66 504 132.74 504.05 132.74 504.08 132.81 504.13 132.81 504.16 132.88 504.21 132.88 504.24 132.95 504.3 132.95 504.32 133.03 504.38 133.03 504.4 133.1 504.46 133.1 504.49 133.17 504.54 133.17 504.57 133.25 504.62 133.25 504.65 133.32 504.7 133.32 504.73 133.39 504.78 133.39 504.81 133.47 504.86 133.47 504.89 133.54 504.94 133.54 504.97 133.61 505.02 133.61 505.05 133.68 505.11 133.68 505.13 133.76 505.19 133.76 505.21 133.83 505.27 133.83 505.3 133.9 505.35 133.9 505.38 133.98 505.43 133.98 505.46 134.05 505.51 134.05 505.54 134.12 505.59 134.12 505.62 134.19 505.67 134.19 505.7 134.27 505.75 134.27 505.78 134.34 505.83 134.34 505.86 134.41 505.91 134.41 505.94 134.49 506 134.49 506.02 134.56 506.08 134.56 506.11 134.63 506.16 134.63 506.19 134.71 506.24 134.71 506.27 134.78 506.32 134.78 506.35 134.85 506.4 134.85 506.43 134.92 506.48 134.92 506.51 135 506.56 135 506.59 135.07 506.64 135.07 506.67 135.14 506.72 135.14 506.75 135.22 506.81 135.22 506.83 135.29 506.89 135.29 506.92 135.36 506.97 135.36 507 135.43 507.05 135.43 507.08 135.51 507.13 135.51 507.16 135.58 507.21 135.58 507.24 135.65 507.29 135.65 507.32 135.73 507.37 135.73 507.4 135.8 507.45 135.8 507.48 135.87 507.53 135.87 507.56 135.94 507.62 135.94 507.64 136.02 507.7 136.02 507.72 136.09 507.78 136.09 507.81 136.16 507.86 136.16 507.89 136.24 507.94 136.24 507.97 136.31 508.02 136.31 508.05 136.38 508.1 136.38 508.13 136.46 508.18 136.46 508.21 136.53 508.26 136.53 508.29 136.6 508.34 136.6 508.37 136.68 508.42 136.68 508.45 136.75 508.5 136.75 508.53 136.82 508.59 136.82 508.62 136.89 508.67 136.89 508.7 136.97 508.75 136.97 508.78 137.04 508.83 137.04 508.86 137.11 508.91 137.11 508.94 137.19 508.99 137.19 509.02 137.26 509.07 137.26 509.1 137.33 509.15 137.33 509.18 137.4 509.23 137.4 509.26 137.48 509.31 137.48 509.34 137.55 509.4 137.55 509.43 137.62 509.48 137.62 509.51 137.7 509.56 137.7 509.59 137.77 509.64 137.77 509.67 137.84 509.72 137.84 509.75 137.91 509.8 137.91 509.83 137.99 509.88 137.99 509.91 138.06 509.96 138.06 509.99 138.13 510.04 138.13 510.07 138.21 510.13 138.21 510.15 138.28 510.21 138.28 510.23 138.35 510.29 138.35 510.31 138.43 510.37 138.43 510.4 138.5 510.45 138.5 510.48 138.57 510.53 138.57 510.56 138.64 510.61 138.64 510.64 138.72 510.69 138.72 510.72 138.79 510.77 138.79 510.8 138.86 510.85 138.86 510.88 138.94 510.93 138.94 510.96 139.01 511.01 139.01 511.04 139.08 511.1 139.08 511.13 139.16 511.18 139.16 511.21 139.23 511.26 139.23 511.29 139.3 511.34 139.3 511.37 139.37 511.42 139.37 511.45 139.45 511.5 139.45 511.53 139.52 511.58 139.52 511.61 139.59 511.66 139.59 511.69 139.66 511.74 139.66 511.77 139.74 511.82 139.74 511.85 139.81 511.91 139.81 511.94 139.88 511.99 139.88 512.02 139.96 512.07 139.96 512.1 140.03 512.15 140.03 512.18 140.1 512.23 140.1 512.26 140.18 512.31 140.18 512.34 140.25 512.39 140.25 512.42 140.32 512.47 140.32 512.5 140.4 512.55 140.4 512.58 140.47 512.63 140.47 512.66 140.54 512.72 140.54 512.74 140.61 512.8 140.61 512.83 140.69 512.88 140.69 512.91 140.76 512.96 140.76 512.99 140.83 513.04 140.83 513.07 140.91 513.12 140.91 513.15 140.98 513.2 140.98 513.23 141.05 513.28 141.05 513.31 141.12 513.36 141.12 513.39 141.2 513.45 141.2 513.47 141.27 513.52 141.27 513.55 141.34 513.61 141.34 513.63 141.42 513.69 141.42 513.72 141.49 513.77 141.49 513.8 141.56 513.85 141.56 513.88 141.63 528.82 141.63 532.57 136.88 532.58 136.89 532.63 136.89 532.66 136.97 532.71 136.97 532.74 137.04 532.8 137.04 532.82 137.11 532.88 137.11 532.9 137.19 532.96 137.19 532.98 137.26 533.04 137.26 533.06 137.33 533.12 137.33 533.14 137.4 533.2 137.4 533.22 137.48 533.28 137.48 533.3 137.55 533.36 137.55 533.39 137.62 533.44 137.62 533.47 137.7 533.52 137.7 533.55 137.77 533.61 137.77 533.63 137.84 533.69 137.84 533.71 137.91 533.77 137.91 533.79 137.99 533.85 137.99 533.87 138.06 533.93 138.06 533.95 138.13 534.01 138.13 534.03 138.21 534.09 138.21 534.12 138.28 534.17 138.28 534.2 138.35 534.25 138.35 534.28 138.43 534.33 138.43 534.36 138.5 534.41 138.5 534.44 138.57 534.5 138.57 534.52 138.64 534.58 138.64 534.6 138.72 534.66 138.72 534.68 138.79 534.74 138.79 534.76 138.86 534.82 138.86 534.84 138.94 534.9 138.94 534.92 139.01 534.98 139.01 535.01 139.08 535.06 139.08 535.09 139.16 535.14 139.16 535.17 139.23 535.22 139.23 535.25 139.3 535.31 139.3 535.33 139.37 535.39 139.37 535.41 139.45 535.47 139.45 535.49 139.52 535.55 139.52 535.57 139.59 535.63 139.59 535.65 139.66 535.71 139.66 535.73 139.74 535.79 139.74 535.82 139.81 535.87 139.81 535.9 139.88 535.95 139.88 535.98 139.96 536.03 139.96 536.06 140.03 536.12 140.03 536.14 140.1 536.2 140.1 536.22 140.18 536.28 140.18 536.3 140.25 536.36 140.25 536.38 140.32 536.44 140.32 536.46 140.4 536.52 140.4 536.54 140.47 536.6 140.47 536.63 140.54 536.68 140.54 536.71 140.61 536.76 140.61 536.79 140.69 536.84 140.69 536.87 140.76 536.92 140.76 536.95 140.83 537.01 140.83 537.03 140.91 537.09 140.91 537.11 140.98 537.17 140.98 537.19 141.05 537.25 141.05 537.27 141.12 537.33 141.12 537.35 141.2 537.41 141.2 537.43 141.27 537.49 141.27 537.52 141.34 537.57 141.34 537.6 141.42 537.65 141.42 537.68 141.49 537.74 141.49 537.76 141.56 537.82 141.56 537.84 141.63 553.47 141.63 564.15 129.16 570.76 100.38 570.66 100.38"/><path class="cls-2" d="M379.75,94.45,376,110.63H359.62l3.76-16.18Z"/><path class="cls-2" d="M390.37,69.49H422.8l6.42,8.16-7.66,33.1H403.09l5.63-24.46h-4l-5.62,24.46H380.86Z"/><path class="cls-2" d="M428,102.91l5.87-25.39,9.82-8.09h25.2L475,77.52l-5.86,25.39-9.88,8.15H434Zm25.57-6.67,2.72-12h-6.73l-2.72,12Z"/><path class="cls-2" d="M492.21,94h3.34l5.62-24.46h15.38L510.93,94h3.33l5.62-24.46h16.55l-6.6,28.78-10.69,12.48H503.51l-2.4-7.29h-.87l-5.74,7.29H479.55l-4.88-12.48,6.61-28.78h16.55Z"/></g></g></svg>